<?xml version="1.0" encoding="utf-8"?>
<!-- Generator: Adobe Illustrator 17.0.0, SVG Export Plug-In . SVG Version: 6.00 Build 0)  -->
<!DOCTYPE svg PUBLIC "-//W3C//DTD SVG 1.1//EN" "http://www.w3.org/Graphics/SVG/1.1/DTD/svg11.dtd">
<svg version="1.1" id="图层_1" xmlns="http://www.w3.org/2000/svg" xmlns:xlink="http://www.w3.org/1999/xlink" x="0px" y="0px"
	 width="84.5px" height="84.5px" viewBox="0 0 84.5 84.5" enable-background="new 0 0 84.5 84.5" xml:space="preserve">
<path fill="none" stroke="#FFFFFF" stroke-width="4" stroke-miterlimit="10" d="M82.5,42.25c0,22.229-18.021,40.25-40.25,40.25
	S2,64.479,2,42.25"/>
<g>
	<rect x="39.428" y="44.25" fill="#FFFFFF" width="5.645" height="25"/>
	<path fill="#FFFFFF" d="M48.128,75.25c0,1.45-1.266,2.625-2.828,2.625h-6.516c-1.562,0-2.828-1.175-2.828-2.625v-10.5
		c0-1.45,1.266-2.625,2.828-2.625H45.3c1.562,0,2.828,1.175,2.828,2.625V75.25z"/>
</g>
<g>
	<path fill="#FFFFFF" d="M42.25,0C18.954,0,0,18.953,0,42.25v2h39.636V26.375h-0.644c-1.562,0-2.828-1.175-2.828-2.625v-10.5
		c0-1.45,1.266-2.625,2.828-2.625h6.516c1.562,0,2.828,1.175,2.828,2.625v10.5c0,1.45-1.266,2.625-2.828,2.625h-0.227V44.25H84.5v-2
		C84.5,18.953,65.547,0,42.25,0z"/>
</g>
</svg>
