<svg version="1.1" id="图层_1" xmlns="http://www.w3.org/2000/svg" xmlns:xlink="http://www.w3.org/1999/xlink" viewBox="0 0 74.951 15.601" enable-background="new 0 0 74.951 15.601" xml:space="preserve">
<g>
	<path fill="#E9E4BC" d="M14.784,0c0.864,0,1.672,0.165,2.424,0.492c0.752,0.328,1.408,0.772,1.968,1.332s1.004,1.216,1.332,1.968
		C20.835,4.544,21,5.352,21,6.216v9.384h-3.816V6.216c0-0.672-0.232-1.24-0.696-1.704c-0.464-0.464-1.032-0.696-1.704-0.696
		c-0.672,0-1.236,0.232-1.692,0.696c-0.456,0.464-0.684,1.032-0.684,1.704v9.384H8.592V6.216c0-0.672-0.232-1.24-0.696-1.704
		C7.432,4.048,6.864,3.816,6.192,3.816S4.956,4.048,4.5,4.512C4.044,4.977,3.816,5.544,3.816,6.216v9.384H0V6.216
		c0-0.864,0.164-1.672,0.492-2.424C0.82,3.04,1.264,2.384,1.824,1.824S3.04,0.82,3.792,0.492C4.544,0.165,5.344,0,6.192,0
		C7.04,0,7.828,0.156,8.556,0.468s1.372,0.74,1.932,1.284c0.56-0.543,1.208-0.972,1.944-1.284C13.167,0.156,13.952,0,14.784,0z"/>
	<path fill="#E9E4BC" d="M26.231,10.14c-0.144,0.152-0.216,0.332-0.216,0.54c0,0.256,0.036,0.504,0.108,0.744
		c0.072,0.24,0.284,0.36,0.636,0.36h5.328v3.816H26.76c-0.624,0-1.212-0.12-1.764-0.36c-0.552-0.24-1.036-0.567-1.452-0.984
		c-0.416-0.415-0.744-0.899-0.984-1.452c-0.24-0.552-0.36-1.14-0.36-1.764v-0.36c0-0.624,0.12-1.216,0.36-1.776
		c0.24-0.56,0.568-1.048,0.984-1.464c0.416-0.416,0.9-0.744,1.452-0.984c0.552-0.24,1.14-0.36,1.764-0.36h4.367
		c-0.08-0.24-0.164-0.472-0.251-0.696c-0.088-0.224-0.2-0.423-0.336-0.6c-0.136-0.176-0.3-0.316-0.492-0.42
		c-0.192-0.104-0.432-0.156-0.72-0.156h-5.832V0.408h5.832c0.576,0,1.136,0.108,1.68,0.324c0.543,0.216,1.048,0.504,1.512,0.864
		s0.868,0.78,1.212,1.26s0.612,0.984,0.804,1.512l3.937,11.232h-4.032l-1.992-5.688H26.76C26.551,9.912,26.375,9.988,26.231,10.14z"
		/>
	<path fill="#E9E4BC" d="M44.664,2.664V6.48h-2.712l1.368,3.96c0.159,0.417,0.352,0.752,0.575,1.008
		c0.225,0.256,0.568,0.384,1.032,0.384h2.4v3.769h-2.4c-0.561,0-1.112-0.104-1.656-0.313c-0.544-0.207-1.044-0.492-1.5-0.852
		c-0.456-0.36-0.855-0.771-1.199-1.236c-0.345-0.464-0.604-0.96-0.78-1.488L35.855,0.408h3.984l0.792,2.256H44.664z"/>
	<path fill="#E9E4BC" d="M47.447,8.016c0-1.056,0.188-2.044,0.564-2.964s0.892-1.724,1.548-2.412s1.424-1.232,2.304-1.632
		s1.816-0.6,2.809-0.6h5.327v3.816h-5.327c-0.465,0-0.904,0.1-1.32,0.3c-0.416,0.2-0.78,0.472-1.092,0.816
		c-0.313,0.344-0.557,0.744-0.732,1.2s-0.264,0.948-0.264,1.476s0.088,1.02,0.264,1.476s0.42,0.852,0.732,1.188
		c0.312,0.336,0.676,0.604,1.092,0.804c0.416,0.201,0.855,0.3,1.32,0.3h5.327v3.816h-5.327c-0.992,0-1.929-0.2-2.809-0.601
		c-0.88-0.399-1.647-0.943-2.304-1.632c-0.656-0.688-1.172-1.492-1.548-2.412C47.636,10.036,47.447,9.056,47.447,8.016z"/>
	<path fill="#E9E4BC" d="M71.136,6.096V0.408h3.815v15.192h-3.815V9.912h-5.904v5.688h-3.816V0.408h3.816v5.688H71.136z"/>
</g>
</svg>
