<svg version="1.1" id="图层_1" xmlns="http://www.w3.org/2000/svg" xmlns:xlink="http://www.w3.org/1999/xlink"  viewBox="0 0 56.417 25.599" enable-background="new 0 0 56.417 25.599" xml:space="preserve">
<line fill="none" stroke="#EAE5BD" stroke-width="2" stroke-miterlimit="10" x1="0.508" y1="0.861" x2="28.208" y2="17.195"/>
<g>
	<path fill="#F8B62D" d="M28.208,24.599c-4.45,0-8.071-3.491-8.071-7.782c0-1.748,0.78-3.289,1.623-4.693
		c0.822-1.369,2.921-4.035,4.518-6.009c0.029,1.433,0.275,3.034,1.069,4.154c0.553,0.78,1.331,1.269,2.251,1.412
		c0.152,0.023,0.297,0.034,0.435,0.034c0.644,0,1.216-0.24,1.656-0.694c0.479-0.495,0.747-1.17,0.891-1.939
		c0.84,1.18,1.266,1.815,2.56,3.743c0.745,1.112,1.14,2.493,1.14,3.992C36.28,21.108,32.659,24.599,28.208,24.599z"/>
	<path fill="#EB6100" d="M25.569,8.606c0.193,0.81,0.498,1.586,0.962,2.241c0.712,1.006,1.72,1.635,2.913,1.822
		c0.198,0.031,0.396,0.047,0.589,0.047c0.921,0,1.742-0.345,2.375-0.999c0.159-0.164,0.299-0.34,0.423-0.527
		c0.379,0.556,0.813,1.203,1.477,2.192c0.635,0.947,0.971,2.134,0.971,3.434c0,3.74-3.172,6.782-7.071,6.782
		c-3.899,0-7.071-3.043-7.071-6.782c0-1.504,0.712-2.897,1.481-4.178C23.157,11.74,24.335,10.176,25.569,8.606 M27.521,3.027
		c0,0-5.165,6.161-6.618,8.582c-0.939,1.564-1.766,3.258-1.766,5.208c0,4.85,4.061,8.782,9.071,8.782s9.071-3.932,9.071-8.782
		c0-1.665-0.437-3.247-1.31-4.548c-1.937-2.888-1.937-2.888-4.264-6.118c0.023,1.004,0.281,4.565-1.672,4.565
		c-0.089,0-0.182-0.007-0.28-0.023C26.203,10.139,27.521,3.027,27.521,3.027L27.521,3.027z"/>
</g>
<line fill="none" stroke="#EAE5BD" stroke-width="2" stroke-miterlimit="10" x1="55.909" y1="0.861" x2="28.208" y2="17.195"/>
<path fill="#D34541" d="M28.286,14.191c0.935-0.589,2.169-0.309,2.758,0.626l0.533,0.846c0.589,0.935,0.309,2.169-0.626,2.758
	l-2.82,1.777c-0.935,0.589-2.169,0.309-2.758-0.626l-0.533-0.846c-0.589-0.935-0.309-2.169,0.626-2.758L28.286,14.191z"/>
</svg>
