<svg version="1.1" id="图层_1" xmlns="http://www.w3.org/2000/svg" xmlns:xlink="http://www.w3.org/1999/xlink" viewBox="0 0 151.921 124.713" enable-background="new 0 0 151.921 124.713"
	 xml:space="preserve">
<g>
	<path fill="#DF4543" stroke="#EDE8BF" stroke-width="18" stroke-miterlimit="10" d="M76.088,50.209
		c1.952,2.806,3.828,5.505,5.537,7.969c7.059,10.176,31.64,44,0.448,56.733c-0.746,0.305-4.684,0.748-5.89,0.8
		c-0.898,0.039-5.112-0.372-5.758-0.631c-31.261-12.545-6.937-46.725,0.122-56.901c1.792-2.583,3.767-5.426,5.821-8.378"/>
	<path fill="#DEBB97" d="M82.708,76.101c-2.411-4.163-5.303-8.401-6.691-10.389l10.748-15.582c1.954,2.809,0.166,0.238,1.877,2.705
		c0,0,3.818,5.469,4.505,6.564L82.708,76.101z"/>
	<path fill="none" stroke="#EDE8BF" stroke-width="18" stroke-miterlimit="10" d="M24.673,115.713
		c-29.696-16.191-9.36-47.449-2.301-57.625c11.192-16.134,29.534-42.377,29.534-42.377s13.168,18.84,23.997,34.408"/>
	<path fill="none" stroke="#EDE8BF" stroke-width="18" stroke-miterlimit="10" d="M127.248,115.713
		c29.696-16.191,9.36-47.449,2.301-57.625c-11.192-16.134-29.534-42.377-29.534-42.377s-13.168,18.84-23.997,34.408"/>
</g>
</svg>
